<svg xmlns="http://www.w3.org/2000/svg" viewBox="0 0 180 180" role="img" aria-labelledby="title">
  <title>Navi's Notes cat icon</title>
  <defs>
    <linearGradient id="bg" x1="24" y1="18" x2="158" y2="166" gradientUnits="userSpaceOnUse">
      <stop stop-color="#38bdf8"/>
      <stop offset="0.55" stop-color="#2563eb"/>
      <stop offset="1" stop-color="#4338ca"/>
    </linearGradient>
  </defs>
  <rect width="180" height="180" rx="42" fill="url(#bg)"/>
  <path d="M54 78 62 48l24 22h8l24-22 8 30c13 10 20 25 20 42 0 31-25 51-56 51s-56-20-56-51c0-17 7-32 20-42z" fill="#f8fafc"/>
  <path d="M62 66 66 52l13 14c-7 0-12 0-17 0zm56 0 13-14 4 14c-5 0-10 0-17 0z" fill="#bfdbfe"/>
  <circle cx="72" cy="108" r="7" fill="#172554"/>
  <circle cx="108" cy="108" r="7" fill="#172554"/>
  <path d="M84 121c4 4 8 5 12 0" fill="none" stroke="#172554" stroke-width="6" stroke-linecap="round"/>
  <path d="M90 116 84 111h12l-6 5z" fill="#2563eb"/>
  <path d="M53 120H34m21 12H38m89-12h19m-21 12h17" stroke="#dbeafe" stroke-width="5" stroke-linecap="round"/>
  <path d="M71 92c-5-3-11-3-16 0m70 0c-5-3-11-3-16 0" stroke="#60a5fa" stroke-width="5" stroke-linecap="round"/>
</svg>
